<svg width="63" height="63" viewBox="0 0 63 63" fill="none" xmlns="http://www.w3.org/2000/svg">
<path d="M41.287 30.7349L18.9955 53.6432C18.8119 53.8278 18.6668 54.047 18.5686 54.2881C18.4703 54.5291 18.4208 54.7873 18.423 55.0476C18.4252 55.3079 18.4789 55.5652 18.5812 55.8046C18.6834 56.044 18.8321 56.2607 19.0187 56.4423C19.2053 56.6238 19.426 56.7665 19.6681 56.8622C19.9102 56.9579 20.1689 57.0046 20.4292 56.9996C20.6894 56.9947 20.9461 56.9382 21.1844 56.8333C21.4227 56.7285 21.6378 56.5775 21.8173 56.389L45.4423 32.1077C45.7999 31.7402 46 31.2476 46 30.7349C46 30.2221 45.7999 29.7295 45.4423 29.362L21.8173 5.08073C21.6378 4.89222 21.4227 4.74119 21.1844 4.63637C20.9461 4.53155 20.6894 4.47503 20.4292 4.47007C20.1689 4.46512 19.9102 4.51183 19.6681 4.6075C19.426 4.70317 19.2053 4.84591 19.0187 5.02745C18.8321 5.20898 18.6834 5.42572 18.5812 5.66512C18.4789 5.90451 18.4252 6.1618 18.423 6.42211C18.4208 6.68242 18.4703 6.94057 18.5686 7.18163C18.6668 7.42269 18.8119 7.64187 18.9955 7.82648L41.287 30.7349Z" fill="#274665"/>
</svg>
