<svg width="63" height="63" viewBox="0 0 63 63" fill="none" xmlns="http://www.w3.org/2000/svg">
<path d="M21.713 32.2651L44.0045 9.35676C44.1881 9.17215 44.3332 8.95297 44.4314 8.71192C44.5297 8.47086 44.5792 8.2127 44.577 7.9524C44.5748 7.69209 44.5211 7.43479 44.4188 7.1954C44.3166 6.95601 44.1679 6.73927 43.9813 6.55773C43.7947 6.37619 43.574 6.23346 43.3319 6.13778C43.0898 6.04211 42.8311 5.9954 42.5708 6.00036C42.3106 6.00531 42.0539 6.06183 41.8156 6.16665C41.5773 6.27147 41.3622 6.42251 41.1827 6.61101L17.5577 30.8923C17.2001 31.2598 17 31.7524 17 32.2651C17 32.7779 17.2001 33.2705 17.5577 33.638L41.1827 57.9193C41.3622 58.1078 41.5773 58.2588 41.8156 58.3636C42.0539 58.4684 42.3106 58.525 42.5708 58.5299C42.8311 58.5349 43.0898 58.4882 43.3319 58.3925C43.574 58.2968 43.7947 58.1541 43.9813 57.9726C44.1679 57.791 44.3166 57.5743 44.4188 57.3349C44.5211 57.0955 44.5748 56.8382 44.577 56.5779C44.5792 56.3176 44.5297 56.0594 44.4314 55.8184C44.3332 55.5773 44.1881 55.3581 44.0045 55.1735L21.713 32.2651Z" fill="#274665"/>
</svg>
