<svg width="35" height="35" viewBox="0 0 35 35" fill="none" xmlns="http://www.w3.org/2000/svg">
<path d="M30.1389 14.5832H20.4167V4.861C20.4167 4.08745 20.1094 3.34559 19.5624 2.79861C19.0154 2.25163 18.2736 1.94434 17.5 1.94434C16.7265 1.94434 15.9846 2.25163 15.4376 2.79861C14.8906 3.34559 14.5833 4.08745 14.5833 4.861V14.5832H4.86112C4.08758 14.5832 3.34571 14.8905 2.79873 15.4375C2.25175 15.9845 1.94446 16.7263 1.94446 17.4999C1.94446 18.2734 2.25175 19.0153 2.79873 19.5623C3.34571 20.1093 4.08758 20.4166 4.86112 20.4166H14.5833V30.1388C14.5833 30.9123 14.8906 31.6542 15.4376 32.2012C15.9846 32.7482 16.7265 33.0555 17.5 33.0555C18.2736 33.0555 19.0154 32.7482 19.5624 32.2012C20.1094 31.6542 20.4167 30.9123 20.4167 30.1388V20.4166H30.1389C30.9125 20.4166 31.6543 20.1093 32.2013 19.5623C32.7483 19.0153 33.0556 18.2734 33.0556 17.4999C33.0556 16.7263 32.7483 15.9845 32.2013 15.4375C31.6543 14.8905 30.9125 14.5832 30.1389 14.5832Z" fill="#233E57"/>
</svg>
