<svg width="24" height="24" viewBox="0 0 24 24" fill="none" xmlns="http://www.w3.org/2000/svg">
<path d="M22.5 3.75H1.5C1.10218 3.75 0.720644 3.90804 0.43934 4.18934C0.158035 4.47064 0 4.85218 0 5.25L0 18.75C0 19.1478 0.158035 19.5294 0.43934 19.8107C0.720644 20.092 1.10218 20.25 1.5 20.25H22.5C22.8978 20.25 23.2794 20.092 23.5607 19.8107C23.842 19.5294 24 19.1478 24 18.75V5.25C24 4.85218 23.842 4.47064 23.5607 4.18934C23.2794 3.90804 22.8978 3.75 22.5 3.75ZM20.55 5.625L12.63 12.84C12.4583 12.9981 12.2334 13.0859 12 13.0859C11.7666 13.0859 11.5417 12.9981 11.37 12.84L3.45 5.625H20.55ZM1.875 18.375V6.72L10.11 14.22C10.6251 14.6944 11.2997 14.9577 12 14.9577C12.7003 14.9577 13.3749 14.6944 13.89 14.22L22.125 6.72V18.375H1.875Z" fill="white"/>
</svg>
